<?xml version="1.0" encoding="utf-8"?>
<!-- Generator: Adobe Illustrator 23.1.1, SVG Export Plug-In . SVG Version: 6.00 Build 0)  -->
<svg version="1.1" id="Laag_1" xmlns="http://www.w3.org/2000/svg" xmlns:xlink="http://www.w3.org/1999/xlink" x="0px" y="0px"
	 viewBox="0 0 566.9 154.5" style="enable-background:new 0 0 566.9 154.5;" xml:space="preserve">
<style type="text/css">
	.st0{fill:#2AA1FF;}
</style>
<g>
	<g>
		<g>
			<path class="st0" d="M302,122.1h19.2V39.4H302V122.1z"/>
		</g>
		<g>
			<path class="st0" d="M340,150.3h19.1l-0.1-35l1.6,1.3c6.1,4.7,13.2,7.2,20.6,7.2h1.2c14.3-0.4,27.1-8.2,34.4-20.9l0.6-1.1
				c0.2-0.4,0.5-0.9,0.7-1.3c2.9-6,4.3-12.2,4.3-18.8c0-6.5-1.4-12.8-4.2-18.6c-0.3-0.6-0.5-1-0.8-1.5l-0.6-1.2
				c-7.2-12.7-20.1-20.5-34.4-20.9h-1.2c-7.3,0-14.3,2.4-20.4,7.1l-1.6,1.2v-8.3H340V150.3z M381.1,103.7c-12.1,0-22-10-22-22.2
				s9.9-22.2,22-22.2s22,10,22,22.2S393.3,103.7,381.1,103.7z"/>
		</g>
		<g>
			<path class="st0" d="M235.7,122.1h19.1V80.7c0-12.2,9.9-22.2,22-22.2h13.3V39.4H277c-6.9,0-13.5,0-20.3,10.1l-1.9,2.7V39.4h-19.1
				L235.7,122.1L235.7,122.1z"/>
		</g>
		<g>
			<path class="st0" d="M426.2,56.1h14.1v41.6c0,13.5,10.9,24.4,24.4,24.4h23v-16.7h-15.9c-6.8,0-12.3-5.5-12.3-12.3v-37h28.2V39.4
				h-28.2V11.5l-19.1,6.9v21h-14.1v16.7H426.2z"/>
		</g>
		<g>
			<path class="st0" d="M311.3,3.3c-6,0-10.9,4.6-10.9,10.3s4.9,10.3,10.9,10.3s10.9-4.6,10.9-10.3C322.2,8,317.3,3.3,311.3,3.3z"/>
		</g>
		<g>
			<path class="st0" d="M79.1,122.1h40.6c13.7,0,24.9-11.2,24.9-24.9s-11.1-24.9-24.9-24.9h-16.4c-4.5,0-8.1-3.6-8.1-8.1
				s3.6-8.1,8.1-8.1h34.2V39.4h-36.7c-13.7,0-24.9,11.2-24.9,24.9s11.2,24.9,24.9,24.9h16.4c4.5,0,8.1,3.6,8.1,8.1s-3.6,8.1-8.1,8.1
				H79.1V122.1z"/>
		</g>
		<g>
			<path class="st0" d="M193.9,39.4c-22.8,0-41.3,18.6-41.3,41.4s18.5,41.4,41.3,41.4h27.2V103h-27.2c-12.2,0-22.2-10-22.2-22.2
				s10-22.2,22.2-22.2h27.2V39.4H193.9z"/>
		</g>
	</g>
	<polygon class="st0" points="59.3,112.4 27.6,80.7 59.3,49 47.4,37.2 15.8,68.9 3.9,80.7 15.8,92.5 47.4,124.2 	"/>
	<polygon class="st0" points="507,112.4 538.7,80.7 507,49 518.8,37.2 550.5,68.9 562.3,80.7 550.5,92.5 518.8,124.2 	"/>
</g>
</svg>
